{"title":"Jennifer_Nettles_Rihanna_Academy_Of_Country_Music_Awards_720p_20","uid":6293183,"size":161366395,"categoryP":"video","categoryS":"hd___tv_shows","magnet":"?xt=urn:btih:6beee8227365ab37bc30722515f9dfac12632a62&amp;dn=Jennifer_Nettles_Rihanna_Academy_Of_Country_Music_Awards_720p_20&amp;tr=udp%3A%2F%2Ftracker.openbittorrent.com%3A80&amp;tr=udp%3A%2F%2Fopen.demonii.com%3A1337&amp;tr=udp%3A%2F%2Ftracker.coppersurfer.tk%3A6969&amp;tr=udp%3A%2F%2Fexodus.desync.com%3A6969","seeders":0,"leechers":1,"uploader":"thetorrentlord","files":3,"time":1301902168,"description":"This includes just the song and an MP3. Enjoy and please share.\t\t\t\t\t\t\t\t\t\t\t\t\t\t\t\t\t\t\t\t\t\t\t\t\t\t\t\t\t************************************************************************************************************************************************************************************************************\t\t\t\t\t\t\t\t\t\t\t\t\t\t\t\t\t\t\t\t\t\t\t\t\t\t\t\t\t\t\t\tJennifer_Nettles_Rihanna_Academy_Of_Country_Music_Awards_720p_20110403_TTL.avi\nFormat                           : AVI\nFormat/Info                      : Audio Video Interleave\nFile size                        : 144 MiB\nDuration                         : 8mn 46s\nOverall bit rate                 : 2 292 Kbps\nMovie name                       : Jennifer_Nettles_Rihanna_Academy_Of_Country_Music_Awards_720p_20110403_TTL.mpg\nDirector                         : created.with.SUPER(C).v2010.bld.37\nWriting application              : SUPER(C)   \n\nVideo\nID                               : 0\nFormat                           : MPEG-4 Visual\nFormat profile                   : Simple@L3\nFormat settings, BVOP            : No\nFormat settings, QPel            : No\nFormat settings, GMC             : No warppoints\nFormat settings, Matrix          : Default (H.263)\nCodec ID                         : XVID\nCodec ID/Hint                    : XviD\nDuration                         : 4mn 23s\nBit rate                         : 4 459 Kbps\nWidth                            : 1 280 pixels\nHeight                           : 720 pixels\nDisplay aspect ratio             : 16:9\nFrame rate                       : 29.970 fps\nColor space                      : YUV\nChroma subsampling               : 4:2:0\nBit depth                        : 8 bits\nScan type                        : Progressive\nBits/(Pixel*Frame)               : 0.161\nStream size                      : 140 MiB (97%)\nWriting library                  : XviD 1.1.2 (UTC 2006-11-01)\n\nAudio\nID                               : 1\nFormat                           : MPEG Audio\nFormat version                   : Version 2\nFormat profile                   : Layer 3\nMode                             : Joint stereo\nMode extension                   : MS Stereo\nCodec ID                         : 55\nCodec ID/Hint                    : MP3\nDuration                         : 8mn 46s\nBit rate mode                    : Constant\nBit rate                         : 112 Kbps\nChannel(s)                       : 2 channels\nSampling rate                    : 22.05 KHz\nStream size                      : 3.52 MiB (2%)\nAlignment                        : Aligned on interleaves\nInterleave, duration             : 26 ms (0.78 video frame)\nWriting library                  : LAME3.98\n\n\n\n\n\n","torrent":{"xt":"urn:btih:6beee8227365ab37bc30722515f9dfac12632a62","amp;dn":"Jennifer_Nettles_Rihanna_Academy_Of_Country_Music_Awards_720p_20","amp;tr":["udp%3A%2F%2Ftracker.openbittorrent.com%3A80","udp%3A%2F%2Fopen.demonii.com%3A1337","udp%3A%2F%2Ftracker.coppersurfer.tk%3A6969","udp%3A%2F%2Fexodus.desync.com%3A6969"],"infoHash":"6beee8227365ab37bc30722515f9dfac12632a62","infoHashBuffer":{"type":"Buffer","data":[107,238,232,34,115,101,171,55,188,48,114,37,21,249,223,172,18,99,42,98]},"announce":[],"urlList":[]}}